G04 EAGLE Gerber RS-274X export*
G75*
%MOMM*%
%FSLAX34Y34*%
%LPD*%
%INBottom Copper*%
%IPPOS*%
%AMOC8*
5,1,8,0,0,1.08239X$1,22.5*%
G01*
%ADD10C,2.000000*%
%ADD11C,1.320800*%
%ADD12R,1.308000X1.308000*%
%ADD13C,1.308000*%
%ADD14C,1.650000*%
%ADD15C,1.422400*%
%ADD16R,1.995000X1.995000*%
%ADD17C,1.995000*%
%ADD18P,1.429621X8X22.500000*%
%ADD19P,1.429621X8X292.500000*%
%ADD20P,1.429621X8X202.500000*%
%ADD21C,1.422400*%
%ADD22P,1.539592X8X202.500000*%
%ADD23P,1.429621X8X112.500000*%
%ADD24C,0.508000*%


D10*
X504350Y858000D02*
X524350Y858000D01*
X524350Y919000D02*
X504350Y919000D01*
X466350Y899000D02*
X466350Y879000D01*
X650400Y858000D02*
X670400Y858000D01*
X670400Y919000D02*
X650400Y919000D01*
X612400Y899000D02*
X612400Y879000D01*
D11*
X88900Y197104D02*
X88900Y183896D01*
X114300Y183896D02*
X114300Y197104D01*
X139700Y197104D02*
X139700Y183896D01*
X165100Y183896D02*
X165100Y197104D01*
X190500Y197104D02*
X190500Y183896D01*
X215900Y183896D02*
X215900Y197104D01*
X241300Y197104D02*
X241300Y183896D01*
X266700Y183896D02*
X266700Y197104D01*
X292100Y197104D02*
X292100Y183896D01*
X317500Y183896D02*
X317500Y197104D01*
D12*
X812800Y292100D03*
D13*
X812800Y317500D03*
X812800Y342900D03*
X812800Y368300D03*
X812800Y393700D03*
X812800Y419100D03*
X812800Y444500D03*
X812800Y469900D03*
X812800Y495300D03*
X812800Y520700D03*
X812800Y546100D03*
X812800Y571500D03*
X812800Y596900D03*
X812800Y622300D03*
X812800Y647700D03*
X660400Y647700D03*
X660400Y622300D03*
X660400Y596900D03*
X660400Y571500D03*
X660400Y546100D03*
X660400Y520700D03*
X660400Y495300D03*
X660400Y469900D03*
X660400Y444500D03*
X660400Y419100D03*
X660400Y393700D03*
X660400Y368300D03*
X660400Y342900D03*
X660400Y317500D03*
X660400Y292100D03*
D14*
X520700Y177800D03*
X520700Y203200D03*
X495300Y177800D03*
X495300Y203200D03*
X469900Y177800D03*
X469900Y203200D03*
X444500Y203200D03*
X444500Y177800D03*
X419100Y203200D03*
X419100Y177800D03*
D15*
X723900Y729488D02*
X723900Y743712D01*
X749300Y743712D02*
X749300Y729488D01*
X546100Y534162D02*
X546100Y519938D01*
X520700Y519938D02*
X520700Y534162D01*
X622300Y438912D02*
X622300Y424688D01*
X596900Y424688D02*
X596900Y438912D01*
X571500Y438912D02*
X571500Y424688D01*
D10*
X111600Y858000D02*
X91600Y858000D01*
X91600Y919000D02*
X111600Y919000D01*
X53600Y899000D02*
X53600Y879000D01*
X218600Y858000D02*
X238600Y858000D01*
X238600Y919000D02*
X218600Y919000D01*
X180600Y899000D02*
X180600Y879000D01*
X345600Y858000D02*
X365600Y858000D01*
X365600Y919000D02*
X345600Y919000D01*
X307600Y899000D02*
X307600Y879000D01*
D16*
X381000Y736600D03*
D17*
X406400Y736600D03*
X431800Y736600D03*
D16*
X228600Y736600D03*
D17*
X254000Y736600D03*
X279400Y736600D03*
D16*
X88900Y736600D03*
D17*
X114300Y736600D03*
X139700Y736600D03*
D18*
X203200Y800100D03*
X279400Y800100D03*
X63500Y800100D03*
X139700Y800100D03*
D19*
X38100Y647700D03*
X38100Y571500D03*
X171450Y654050D03*
X171450Y577850D03*
D20*
X419100Y800100D03*
X342900Y800100D03*
D19*
X508000Y660400D03*
X508000Y584200D03*
D21*
X520700Y431800D03*
D22*
X520700Y457200D03*
X495300Y431800D03*
X495300Y457200D03*
X469900Y431800D03*
X469900Y457200D03*
X444500Y431800D03*
X444500Y457200D03*
X419100Y431800D03*
X419100Y457200D03*
X393700Y431800D03*
X393700Y457200D03*
X368300Y431800D03*
X368300Y457200D03*
X342900Y431800D03*
X342900Y457200D03*
X317500Y431800D03*
X317500Y457200D03*
X292100Y431800D03*
X292100Y457200D03*
X266700Y431800D03*
X266700Y457200D03*
X241300Y431800D03*
X241300Y457200D03*
X215900Y431800D03*
X215900Y457200D03*
X190500Y431800D03*
X190500Y457200D03*
X165100Y431800D03*
X165100Y457200D03*
X139700Y431800D03*
X139700Y457200D03*
X114300Y431800D03*
X114300Y457200D03*
X88900Y431800D03*
X88900Y457200D03*
X63500Y431800D03*
X63500Y457200D03*
X38100Y431800D03*
X38100Y457200D03*
D23*
X266700Y635000D03*
X266700Y660400D03*
X241300Y660400D03*
X114300Y635000D03*
X114300Y660400D03*
X88900Y660400D03*
X419100Y635000D03*
X419100Y660400D03*
X393700Y660400D03*
D24*
X549402Y482600D02*
X549402Y369570D01*
X549402Y482600D02*
X495300Y482600D01*
X469900Y457200D01*
X431800Y736600D02*
X466350Y771150D01*
X466350Y825500D01*
X466350Y889000D01*
X279400Y768350D02*
X279400Y736600D01*
X279400Y768350D02*
X336550Y825500D01*
X466350Y825500D01*
X549402Y369570D02*
X452882Y273050D01*
X381000Y273050D01*
X381000Y215900D01*
X419100Y177800D01*
X114300Y660400D02*
X114300Y661416D01*
X179796Y313146D02*
X401538Y313146D01*
X179796Y313146D02*
X88900Y222250D01*
X88900Y190500D01*
X401538Y313146D02*
X519684Y431292D01*
X520700Y431800D01*
X356616Y858012D02*
X355600Y858000D01*
X228600Y858000D01*
X266700Y661416D02*
X266700Y660400D01*
X260350Y666750D01*
X260350Y692150D01*
X209550Y692150D01*
X171450Y654050D01*
X381000Y736600D02*
X381000Y742950D01*
X419100Y781050D01*
X419100Y800100D01*
X405384Y737616D02*
X406400Y736600D01*
X307848Y888492D02*
X307600Y889000D01*
X749300Y736600D02*
X838200Y736600D01*
X857250Y717550D01*
X857250Y647700D01*
X850900Y641350D01*
X819150Y641350D01*
X812800Y647700D01*
X621792Y432816D02*
X622300Y431800D01*
X363982Y698500D02*
X342900Y719582D01*
X342900Y800100D01*
X622300Y488950D02*
X622300Y431800D01*
X584200Y488950D02*
X546100Y527050D01*
X584200Y488950D02*
X622300Y488950D01*
X171450Y831850D02*
X139700Y800100D01*
X171450Y831850D02*
X260350Y831850D01*
X279400Y812800D01*
X279400Y800100D01*
X363982Y698500D02*
X552450Y698500D01*
X546100Y558800D02*
X546100Y527050D01*
X546100Y558800D02*
X596900Y609600D01*
X660400Y806450D02*
X660400Y858000D01*
X660400Y806450D02*
X552450Y698500D01*
X685800Y698500D02*
X723900Y736600D01*
X685800Y698500D02*
X590550Y698500D01*
X552450Y698500D01*
X596900Y692150D02*
X596900Y609600D01*
X596900Y692150D02*
X590550Y698500D01*
M02*
