G04 EAGLE Gerber RS-274X export*
G75*
%MOMM*%
%FSLAX34Y34*%
%LPD*%
%IN*%
%IPPOS*%
%AMOC8*
5,1,8,0,0,1.08239X$1,22.5*%
G01*
%ADD10C,0.254000*%


D10*
X-31750Y101600D02*
X901500Y101600D01*
X901500Y1000000D01*
X-31750Y1000000D01*
X-31750Y101600D01*
X341600Y914000D02*
X369600Y914000D01*
X369600Y924000D01*
X341600Y924000D01*
X341600Y914000D01*
X302600Y875000D02*
X312600Y875000D01*
X312600Y903000D01*
X302600Y903000D01*
X302600Y875000D01*
X339100Y853000D02*
X372100Y853000D01*
X372100Y863000D01*
X339100Y863000D01*
X339100Y853000D01*
X214600Y914000D02*
X242600Y914000D01*
X242600Y924000D01*
X214600Y924000D01*
X214600Y914000D01*
X175600Y875000D02*
X185600Y875000D01*
X185600Y903000D01*
X175600Y903000D01*
X175600Y875000D01*
X212100Y853000D02*
X245100Y853000D01*
X245100Y863000D01*
X212100Y863000D01*
X212100Y853000D01*
X87600Y914000D02*
X115600Y914000D01*
X115600Y924000D01*
X87600Y924000D01*
X87600Y914000D01*
X48600Y875000D02*
X58600Y875000D01*
X58600Y903000D01*
X48600Y903000D01*
X48600Y875000D01*
X85100Y853000D02*
X118100Y853000D01*
X118100Y863000D01*
X85100Y863000D01*
X85100Y853000D01*
X646400Y914000D02*
X674400Y914000D01*
X674400Y924000D01*
X646400Y924000D01*
X646400Y914000D01*
X607400Y875000D02*
X617400Y875000D01*
X617400Y903000D01*
X607400Y903000D01*
X607400Y875000D01*
X643900Y853000D02*
X676900Y853000D01*
X676900Y863000D01*
X643900Y863000D01*
X643900Y853000D01*
X500350Y914000D02*
X528350Y914000D01*
X528350Y924000D01*
X500350Y924000D01*
X500350Y914000D01*
X497850Y853000D02*
X530850Y853000D01*
X530850Y863000D01*
X497850Y863000D01*
X497850Y853000D01*
X461350Y875000D02*
X471350Y875000D01*
X471350Y903000D01*
X461350Y903000D01*
X461350Y875000D01*
X881126Y958276D02*
X881051Y957131D01*
X880901Y955994D01*
X880677Y954868D01*
X880380Y953760D01*
X880011Y952673D01*
X879572Y951613D01*
X879065Y950584D01*
X878491Y949590D01*
X877854Y948636D01*
X877155Y947726D01*
X876398Y946863D01*
X875587Y946052D01*
X874724Y945295D01*
X873814Y944596D01*
X872860Y943959D01*
X871866Y943385D01*
X870837Y942878D01*
X869777Y942439D01*
X868690Y942070D01*
X867582Y941773D01*
X866456Y941549D01*
X865319Y941399D01*
X864174Y941324D01*
X863026Y941324D01*
X861881Y941399D01*
X860744Y941549D01*
X859618Y941773D01*
X858510Y942070D01*
X857423Y942439D01*
X856363Y942878D01*
X855334Y943385D01*
X854340Y943959D01*
X853386Y944596D01*
X852476Y945295D01*
X851613Y946052D01*
X850802Y946863D01*
X850045Y947726D01*
X849346Y948636D01*
X848709Y949590D01*
X848135Y950584D01*
X847628Y951613D01*
X847189Y952673D01*
X846820Y953760D01*
X846523Y954868D01*
X846299Y955994D01*
X846149Y957131D01*
X846074Y958276D01*
X846074Y959424D01*
X846149Y960569D01*
X846299Y961706D01*
X846523Y962832D01*
X846820Y963940D01*
X847189Y965027D01*
X847628Y966087D01*
X848135Y967116D01*
X848709Y968110D01*
X849346Y969064D01*
X850045Y969974D01*
X850802Y970837D01*
X851613Y971648D01*
X852476Y972405D01*
X853386Y973104D01*
X854340Y973741D01*
X855334Y974315D01*
X856363Y974822D01*
X857423Y975261D01*
X858510Y975630D01*
X859618Y975927D01*
X860744Y976151D01*
X861881Y976301D01*
X863026Y976376D01*
X864174Y976376D01*
X865319Y976301D01*
X866456Y976151D01*
X867582Y975927D01*
X868690Y975630D01*
X869777Y975261D01*
X870837Y974822D01*
X871866Y974315D01*
X872860Y973741D01*
X873814Y973104D01*
X874724Y972405D01*
X875587Y971648D01*
X876398Y970837D01*
X877155Y969974D01*
X877854Y969064D01*
X878491Y968110D01*
X879065Y967116D01*
X879572Y966087D01*
X880011Y965027D01*
X880380Y963940D01*
X880677Y962832D01*
X880901Y961706D01*
X881051Y960569D01*
X881126Y959424D01*
X881126Y958276D01*
X23876Y958276D02*
X23801Y957131D01*
X23651Y955994D01*
X23427Y954868D01*
X23130Y953760D01*
X22761Y952673D01*
X22322Y951613D01*
X21815Y950584D01*
X21241Y949590D01*
X20604Y948636D01*
X19905Y947726D01*
X19148Y946863D01*
X18337Y946052D01*
X17474Y945295D01*
X16564Y944596D01*
X15610Y943959D01*
X14616Y943385D01*
X13587Y942878D01*
X12527Y942439D01*
X11440Y942070D01*
X10332Y941773D01*
X9206Y941549D01*
X8069Y941399D01*
X6924Y941324D01*
X5776Y941324D01*
X4631Y941399D01*
X3494Y941549D01*
X2368Y941773D01*
X1260Y942070D01*
X173Y942439D01*
X-887Y942878D01*
X-1916Y943385D01*
X-2910Y943959D01*
X-3864Y944596D01*
X-4774Y945295D01*
X-5637Y946052D01*
X-6448Y946863D01*
X-7205Y947726D01*
X-7904Y948636D01*
X-8541Y949590D01*
X-9115Y950584D01*
X-9622Y951613D01*
X-10061Y952673D01*
X-10430Y953760D01*
X-10727Y954868D01*
X-10951Y955994D01*
X-11101Y957131D01*
X-11176Y958276D01*
X-11176Y959424D01*
X-11101Y960569D01*
X-10951Y961706D01*
X-10727Y962832D01*
X-10430Y963940D01*
X-10061Y965027D01*
X-9622Y966087D01*
X-9115Y967116D01*
X-8541Y968110D01*
X-7904Y969064D01*
X-7205Y969974D01*
X-6448Y970837D01*
X-5637Y971648D01*
X-4774Y972405D01*
X-3864Y973104D01*
X-2910Y973741D01*
X-1916Y974315D01*
X-887Y974822D01*
X173Y975261D01*
X1260Y975630D01*
X2368Y975927D01*
X3494Y976151D01*
X4631Y976301D01*
X5776Y976376D01*
X6924Y976376D01*
X8069Y976301D01*
X9206Y976151D01*
X10332Y975927D01*
X11440Y975630D01*
X12527Y975261D01*
X13587Y974822D01*
X14616Y974315D01*
X15610Y973741D01*
X16564Y973104D01*
X17474Y972405D01*
X18337Y971648D01*
X19148Y970837D01*
X19905Y969974D01*
X20604Y969064D01*
X21241Y968110D01*
X21815Y967116D01*
X22322Y966087D01*
X22761Y965027D01*
X23130Y963940D01*
X23427Y962832D01*
X23651Y961706D01*
X23801Y960569D01*
X23876Y959424D01*
X23876Y958276D01*
X23876Y145476D02*
X23801Y144331D01*
X23651Y143194D01*
X23427Y142068D01*
X23130Y140960D01*
X22761Y139873D01*
X22322Y138813D01*
X21815Y137784D01*
X21241Y136790D01*
X20604Y135836D01*
X19905Y134926D01*
X19148Y134063D01*
X18337Y133252D01*
X17474Y132495D01*
X16564Y131796D01*
X15610Y131159D01*
X14616Y130585D01*
X13587Y130078D01*
X12527Y129639D01*
X11440Y129270D01*
X10332Y128973D01*
X9206Y128749D01*
X8069Y128599D01*
X6924Y128524D01*
X5776Y128524D01*
X4631Y128599D01*
X3494Y128749D01*
X2368Y128973D01*
X1260Y129270D01*
X173Y129639D01*
X-887Y130078D01*
X-1916Y130585D01*
X-2910Y131159D01*
X-3864Y131796D01*
X-4774Y132495D01*
X-5637Y133252D01*
X-6448Y134063D01*
X-7205Y134926D01*
X-7904Y135836D01*
X-8541Y136790D01*
X-9115Y137784D01*
X-9622Y138813D01*
X-10061Y139873D01*
X-10430Y140960D01*
X-10727Y142068D01*
X-10951Y143194D01*
X-11101Y144331D01*
X-11176Y145476D01*
X-11176Y146624D01*
X-11101Y147769D01*
X-10951Y148906D01*
X-10727Y150032D01*
X-10430Y151140D01*
X-10061Y152227D01*
X-9622Y153287D01*
X-9115Y154316D01*
X-8541Y155310D01*
X-7904Y156264D01*
X-7205Y157174D01*
X-6448Y158037D01*
X-5637Y158848D01*
X-4774Y159605D01*
X-3864Y160304D01*
X-2910Y160941D01*
X-1916Y161515D01*
X-887Y162022D01*
X173Y162461D01*
X1260Y162830D01*
X2368Y163127D01*
X3494Y163351D01*
X4631Y163501D01*
X5776Y163576D01*
X6924Y163576D01*
X8069Y163501D01*
X9206Y163351D01*
X10332Y163127D01*
X11440Y162830D01*
X12527Y162461D01*
X13587Y162022D01*
X14616Y161515D01*
X15610Y160941D01*
X16564Y160304D01*
X17474Y159605D01*
X18337Y158848D01*
X19148Y158037D01*
X19905Y157174D01*
X20604Y156264D01*
X21241Y155310D01*
X21815Y154316D01*
X22322Y153287D01*
X22761Y152227D01*
X23130Y151140D01*
X23427Y150032D01*
X23651Y148906D01*
X23801Y147769D01*
X23876Y146624D01*
X23876Y145476D01*
X881126Y145476D02*
X881051Y144331D01*
X880901Y143194D01*
X880677Y142068D01*
X880380Y140960D01*
X880011Y139873D01*
X879572Y138813D01*
X879065Y137784D01*
X878491Y136790D01*
X877854Y135836D01*
X877155Y134926D01*
X876398Y134063D01*
X875587Y133252D01*
X874724Y132495D01*
X873814Y131796D01*
X872860Y131159D01*
X871866Y130585D01*
X870837Y130078D01*
X869777Y129639D01*
X868690Y129270D01*
X867582Y128973D01*
X866456Y128749D01*
X865319Y128599D01*
X864174Y128524D01*
X863026Y128524D01*
X861881Y128599D01*
X860744Y128749D01*
X859618Y128973D01*
X858510Y129270D01*
X857423Y129639D01*
X856363Y130078D01*
X855334Y130585D01*
X854340Y131159D01*
X853386Y131796D01*
X852476Y132495D01*
X851613Y133252D01*
X850802Y134063D01*
X850045Y134926D01*
X849346Y135836D01*
X848709Y136790D01*
X848135Y137784D01*
X847628Y138813D01*
X847189Y139873D01*
X846820Y140960D01*
X846523Y142068D01*
X846299Y143194D01*
X846149Y144331D01*
X846074Y145476D01*
X846074Y146624D01*
X846149Y147769D01*
X846299Y148906D01*
X846523Y150032D01*
X846820Y151140D01*
X847189Y152227D01*
X847628Y153287D01*
X848135Y154316D01*
X848709Y155310D01*
X849346Y156264D01*
X850045Y157174D01*
X850802Y158037D01*
X851613Y158848D01*
X852476Y159605D01*
X853386Y160304D01*
X854340Y160941D01*
X855334Y161515D01*
X856363Y162022D01*
X857423Y162461D01*
X858510Y162830D01*
X859618Y163127D01*
X860744Y163351D01*
X861881Y163501D01*
X863026Y163576D01*
X864174Y163576D01*
X865319Y163501D01*
X866456Y163351D01*
X867582Y163127D01*
X868690Y162830D01*
X869777Y162461D01*
X870837Y162022D01*
X871866Y161515D01*
X872860Y160941D01*
X873814Y160304D01*
X874724Y159605D01*
X875587Y158848D01*
X876398Y158037D01*
X877155Y157174D01*
X877854Y156264D01*
X878491Y155310D01*
X879065Y154316D01*
X879572Y153287D01*
X880011Y152227D01*
X880380Y151140D01*
X880677Y150032D01*
X880901Y148906D01*
X881051Y147769D01*
X881126Y146624D01*
X881126Y145476D01*
X813188Y275590D02*
X813961Y275522D01*
X814726Y275388D01*
X815476Y275187D01*
X816205Y274921D01*
X816909Y274593D01*
X817581Y274205D01*
X818217Y273760D01*
X818812Y273261D01*
X819361Y272712D01*
X819860Y272117D01*
X820305Y271481D01*
X820693Y270809D01*
X821021Y270105D01*
X821287Y269376D01*
X821488Y268626D01*
X821622Y267861D01*
X821690Y267088D01*
X821690Y266312D01*
X821622Y265539D01*
X821488Y264774D01*
X821287Y264024D01*
X821021Y263295D01*
X820693Y262591D01*
X820305Y261919D01*
X819860Y261283D01*
X819361Y260688D01*
X818812Y260139D01*
X818217Y259640D01*
X817581Y259195D01*
X816909Y258807D01*
X816205Y258479D01*
X815476Y258213D01*
X814726Y258012D01*
X813961Y257878D01*
X813188Y257810D01*
X812412Y257810D01*
X811639Y257878D01*
X810874Y258012D01*
X810124Y258213D01*
X809395Y258479D01*
X808691Y258807D01*
X808019Y259195D01*
X807383Y259640D01*
X806788Y260139D01*
X806239Y260688D01*
X805740Y261283D01*
X805295Y261919D01*
X804907Y262591D01*
X804579Y263295D01*
X804313Y264024D01*
X804112Y264774D01*
X803978Y265539D01*
X803910Y266312D01*
X803910Y267088D01*
X803978Y267861D01*
X804112Y268626D01*
X804313Y269376D01*
X804579Y270105D01*
X804907Y270809D01*
X805295Y271481D01*
X805740Y272117D01*
X806239Y272712D01*
X806788Y273261D01*
X807383Y273760D01*
X808019Y274205D01*
X808691Y274593D01*
X809395Y274921D01*
X810124Y275187D01*
X810874Y275388D01*
X811639Y275522D01*
X812412Y275590D01*
X813188Y275590D01*
X660788Y275590D02*
X661561Y275522D01*
X662326Y275388D01*
X663076Y275187D01*
X663805Y274921D01*
X664509Y274593D01*
X665181Y274205D01*
X665817Y273760D01*
X666412Y273261D01*
X666961Y272712D01*
X667460Y272117D01*
X667905Y271481D01*
X668293Y270809D01*
X668621Y270105D01*
X668887Y269376D01*
X669088Y268626D01*
X669222Y267861D01*
X669290Y267088D01*
X669290Y266312D01*
X669222Y265539D01*
X669088Y264774D01*
X668887Y264024D01*
X668621Y263295D01*
X668293Y262591D01*
X667905Y261919D01*
X667460Y261283D01*
X666961Y260688D01*
X666412Y260139D01*
X665817Y259640D01*
X665181Y259195D01*
X664509Y258807D01*
X663805Y258479D01*
X663076Y258213D01*
X662326Y258012D01*
X661561Y257878D01*
X660788Y257810D01*
X660012Y257810D01*
X659239Y257878D01*
X658474Y258012D01*
X657724Y258213D01*
X656995Y258479D01*
X656291Y258807D01*
X655619Y259195D01*
X654983Y259640D01*
X654388Y260139D01*
X653839Y260688D01*
X653340Y261283D01*
X652895Y261919D01*
X652507Y262591D01*
X652179Y263295D01*
X651913Y264024D01*
X651712Y264774D01*
X651578Y265539D01*
X651510Y266312D01*
X651510Y267088D01*
X651578Y267861D01*
X651712Y268626D01*
X651913Y269376D01*
X652179Y270105D01*
X652507Y270809D01*
X652895Y271481D01*
X653340Y272117D01*
X653839Y272712D01*
X654388Y273261D01*
X654983Y273760D01*
X655619Y274205D01*
X656291Y274593D01*
X656995Y274921D01*
X657724Y275187D01*
X658474Y275388D01*
X659239Y275522D01*
X660012Y275590D01*
X660788Y275590D01*
X660788Y681990D02*
X661561Y681922D01*
X662326Y681788D01*
X663076Y681587D01*
X663805Y681321D01*
X664509Y680993D01*
X665181Y680605D01*
X665817Y680160D01*
X666412Y679661D01*
X666961Y679112D01*
X667460Y678517D01*
X667905Y677881D01*
X668293Y677209D01*
X668621Y676505D01*
X668887Y675776D01*
X669088Y675026D01*
X669222Y674261D01*
X669290Y673488D01*
X669290Y672712D01*
X669222Y671939D01*
X669088Y671174D01*
X668887Y670424D01*
X668621Y669695D01*
X668293Y668991D01*
X667905Y668319D01*
X667460Y667683D01*
X666961Y667088D01*
X666412Y666539D01*
X665817Y666040D01*
X665181Y665595D01*
X664509Y665207D01*
X663805Y664879D01*
X663076Y664613D01*
X662326Y664412D01*
X661561Y664278D01*
X660788Y664210D01*
X660012Y664210D01*
X659239Y664278D01*
X658474Y664412D01*
X657724Y664613D01*
X656995Y664879D01*
X656291Y665207D01*
X655619Y665595D01*
X654983Y666040D01*
X654388Y666539D01*
X653839Y667088D01*
X653340Y667683D01*
X652895Y668319D01*
X652507Y668991D01*
X652179Y669695D01*
X651913Y670424D01*
X651712Y671174D01*
X651578Y671939D01*
X651510Y672712D01*
X651510Y673488D01*
X651578Y674261D01*
X651712Y675026D01*
X651913Y675776D01*
X652179Y676505D01*
X652507Y677209D01*
X652895Y677881D01*
X653340Y678517D01*
X653839Y679112D01*
X654388Y679661D01*
X654983Y680160D01*
X655619Y680605D01*
X656291Y680993D01*
X656995Y681321D01*
X657724Y681587D01*
X658474Y681788D01*
X659239Y681922D01*
X660012Y681990D01*
X660788Y681990D01*
X813188Y681990D02*
X813961Y681922D01*
X814726Y681788D01*
X815476Y681587D01*
X816205Y681321D01*
X816909Y680993D01*
X817581Y680605D01*
X818217Y680160D01*
X818812Y679661D01*
X819361Y679112D01*
X819860Y678517D01*
X820305Y677881D01*
X820693Y677209D01*
X821021Y676505D01*
X821287Y675776D01*
X821488Y675026D01*
X821622Y674261D01*
X821690Y673488D01*
X821690Y672712D01*
X821622Y671939D01*
X821488Y671174D01*
X821287Y670424D01*
X821021Y669695D01*
X820693Y668991D01*
X820305Y668319D01*
X819860Y667683D01*
X819361Y667088D01*
X818812Y666539D01*
X818217Y666040D01*
X817581Y665595D01*
X816909Y665207D01*
X816205Y664879D01*
X815476Y664613D01*
X814726Y664412D01*
X813961Y664278D01*
X813188Y664210D01*
X812412Y664210D01*
X811639Y664278D01*
X810874Y664412D01*
X810124Y664613D01*
X809395Y664879D01*
X808691Y665207D01*
X808019Y665595D01*
X807383Y666040D01*
X806788Y666539D01*
X806239Y667088D01*
X805740Y667683D01*
X805295Y668319D01*
X804907Y668991D01*
X804579Y669695D01*
X804313Y670424D01*
X804112Y671174D01*
X803978Y671939D01*
X803910Y672712D01*
X803910Y673488D01*
X803978Y674261D01*
X804112Y675026D01*
X804313Y675776D01*
X804579Y676505D01*
X804907Y677209D01*
X805295Y677881D01*
X805740Y678517D01*
X806239Y679112D01*
X806788Y679661D01*
X807383Y680160D01*
X808019Y680605D01*
X808691Y680993D01*
X809395Y681321D01*
X810124Y681587D01*
X810874Y681788D01*
X811639Y681922D01*
X812412Y681990D01*
X813188Y681990D01*
M02*
