M48
;GenerationSoftware,Autodesk,EAGLE,9.6.2*%
;CreationDate,2022-11-29T04:39:13Z*%
FMAT,2
ICI,OFF
METRIC,TZ,000.000
T8C0.800
T7C0.813
T6C0.914
T5C1.000
T4C1.100
T3C1.330
T2C1.778
T1C3.505
%
G90
M71
T1
X635Y95885
X86360Y95885
X635Y14605
X86360Y14605
T2
X66040Y26670
X66040Y67310
X81280Y67310
X81280Y26670
T3
X25400Y73660
X13970Y73660
X22860Y73660
X43180Y73660
X40640Y73660
X38100Y73660
X11430Y73660
X8890Y73660
X27940Y73660
T4
X52070Y17780
X52070Y20320
X49530Y17780
X49530Y20320
X46990Y20320
X44450Y20320
X44450Y17780
X41910Y20320
X46990Y17780
X41910Y17780
T5
X51435Y85800
X51435Y91900
X46635Y88900
X66040Y85800
X66040Y91900
X61240Y88900
X22860Y91900
X35560Y91900
X35560Y85800
X18060Y88900
X30760Y88900
X10160Y91900
X5360Y88900
X22860Y85800
X10160Y85800
T6
X36830Y45720
X34290Y43180
X34290Y45720
X31750Y43180
X31750Y45720
X29210Y43180
X29210Y45720
X26670Y43180
X26670Y45720
X24130Y43180
X24130Y45720
X21590Y43180
X21590Y45720
X19050Y43180
X19050Y45720
X16510Y43180
X16510Y45720
X13970Y45720
X11430Y43180
X11430Y45720
X8890Y43180
X8890Y45720
X6350Y43180
X6350Y45720
X3810Y43180
X3810Y45720
X72390Y73660
X74930Y73660
X54610Y52705
X52070Y52705
X62230Y43180
X59690Y43180
X57150Y43180
X13970Y43180
X52070Y43180
X52070Y45720
X49530Y43180
X49530Y45720
X46990Y43180
X46990Y45720
X44450Y43180
X44450Y45720
X41910Y43180
X41910Y45720
X39370Y43180
X39370Y45720
X36830Y43180
T7
X8890Y19050
X11430Y19050
X13970Y19050
X16510Y19050
X21590Y19050
X24130Y19050
X26670Y19050
X29210Y19050
X31750Y19050
X17145Y65405
X17145Y57785
X41910Y80010
X34290Y80010
X50800Y66040
X50800Y58420
X19050Y19050
X26670Y66040
X20320Y80010
X26670Y63500
X24130Y66040
X11430Y63500
X11430Y66040
X8890Y66040
X3810Y57150
X41910Y63500
X41910Y66040
X27940Y80010
X6350Y80010
X13970Y80010
X3810Y64770
X39370Y66040
T8
X81280Y29210
X81280Y31750
X81280Y34290
X81280Y36830
X81280Y39370
X81280Y41910
X81280Y44450
X81280Y46990
X81280Y49530
X81280Y52070
X81280Y54610
X81280Y57150
X81280Y59690
X81280Y62230
X66040Y64770
X66040Y62230
X66040Y52070
X66040Y54610
X66040Y57150
X66040Y59690
X66040Y34290
X66040Y36830
X81280Y64770
X66040Y39370
X66040Y29210
X66040Y41910
X66040Y44450
X66040Y46990
X66040Y31750
X66040Y49530
M30